<svg width="63" height="19" viewBox="0 0 63 19" fill="none" xmlns="http://www.w3.org/2000/svg">
<g clip-path="url(#clip0_136_453)">
<path d="M7.19197 19H1.53392C0.399318 19 -0.339663 18.1016 0.156723 17.332L10.9055 0.652035C11.1631 0.25399 11.6968 0 12.2827 0H17.9408C19.0754 0 19.8144 0.898444 19.318 1.668L8.5729 18.348C8.31537 18.746 7.78166 19 7.1957 19H7.19197Z" fill="#91C02E"/>
<path d="M20.8966 19H15.2385C14.1039 19 13.3649 18.1016 13.8613 17.332L24.6101 0.652035C24.8677 0.25399 25.4014 0 25.9873 0H31.6454C32.78 0 33.519 0.898444 33.0226 1.668L22.2775 18.348C22.02 18.746 21.4863 19 20.9003 19H20.8966Z" fill="#91C02E"/>
<path d="M34.8028 19H29.1448C28.0102 19 27.2712 18.1016 27.7676 17.332L38.5164 0.652035C38.7739 0.25399 39.3076 0 39.8936 0H45.5516C46.6862 0 47.4252 0.898444 46.9288 1.668L36.1837 18.348C35.9262 18.746 35.3925 19 34.8065 19H34.8028Z" fill="#91C02E"/>
<path d="M61.6417 19H55.0394C54.5841 19 54.1548 18.8256 53.9048 18.5375L46.4814 9.98903C46.2201 9.68575 46.1865 9.29908 46.3955 8.97306L51.8073 0.576217C52.0349 0.223663 52.5089 0 53.0277 0H59.0777C60.0816 0 60.7385 0.796089 60.2981 1.47845L55.4872 8.94274C55.267 9.28392 55.3156 9.69334 55.6104 10.0004L62.739 17.3661C63.3958 18.0447 62.7539 19 61.6454 19H61.6417Z" fill="#91C02E"/>
</g>
<defs>
<clipPath id="clip0_136_453">
<rect width="63" height="19" fill="white"/>
</clipPath>
</defs>
</svg>
